<svg xmlns="http://www.w3.org/2000/svg" viewBox="0 0 200 160" fill="none">
  <rect width="200" height="160" rx="16" fill="#fef9f0"/>
  <circle cx="100" cy="58" r="40" fill="#f5d5d5" fill-opacity="0.3"/>
  <g transform="translate(100,52)">
    <!-- Open book -->
    <path d="M0,-20 L0,18" stroke="#3d2b2b" stroke-width="1.5" stroke-opacity="0.4"/>
    <path d="M0,-20 Q-20,-25 -35,-18 L-35,15 Q-20,10 0,18" fill="#4DB6AC" fill-opacity="0.12" stroke="#4DB6AC" stroke-width="1.5" stroke-linecap="round"/>
    <path d="M0,-20 Q20,-25 35,-18 L35,15 Q20,10 0,18" fill="#f5d5d5" fill-opacity="0.4" stroke="#4DB6AC" stroke-width="1.5" stroke-linecap="round"/>
    <!-- Text lines on book -->
    <line x1="-28" y1="-10" x2="-8" y2="-12" stroke="#4DB6AC" stroke-width="1" stroke-opacity="0.4"/>
    <line x1="-28" y1="-3" x2="-8" y2="-5" stroke="#4DB6AC" stroke-width="1" stroke-opacity="0.4"/>
    <line x1="-28" y1="4" x2="-12" y2="2" stroke="#4DB6AC" stroke-width="1" stroke-opacity="0.4"/>
    <line x1="8" y1="-12" x2="28" y2="-10" stroke="#4DB6AC" stroke-width="1" stroke-opacity="0.4"/>
    <line x1="8" y1="-5" x2="28" y2="-3" stroke="#4DB6AC" stroke-width="1" stroke-opacity="0.4"/>
    <!-- Light bulb above -->
    <circle cx="0" cy="-34" r="8" fill="#f5d5d5" stroke="#e8b4b4" stroke-width="1.2"/>
    <path d="M-3,-28 L-3,-25 L3,-25 L3,-28" stroke="#e8b4b4" stroke-width="1"/>
    <path d="M0,-42 L0,-38" stroke="#4DB6AC" stroke-width="1" stroke-opacity="0.5"/>
    <path d="M-6,-40 L-4,-37" stroke="#4DB6AC" stroke-width="1" stroke-opacity="0.5"/>
    <path d="M6,-40 L4,-37" stroke="#4DB6AC" stroke-width="1" stroke-opacity="0.5"/>
  </g>
  <text x="100" y="115" text-anchor="middle" font-family="sans-serif" font-size="10" fill="#3d2b2b" font-weight="600">Evidence-Based</text>
  <text x="100" y="130" text-anchor="middle" font-family="sans-serif" font-size="8" fill="#7a6060">Knowledge &amp; Confidence</text>
</svg>